<?xml version="1.0" encoding="utf-8"?>
<!-- Generator: Adobe Illustrator 24.3.0, SVG Export Plug-In . SVG Version: 6.00 Build 0)  -->
<svg version="1.1" id="Capa_1" xmlns="http://www.w3.org/2000/svg" xmlns:xlink="http://www.w3.org/1999/xlink" x="0px" y="0px"
	 viewBox="0 0 32 32" style="enable-background:new 0 0 32 32;" xml:space="preserve">
<style type="text/css">
	.st0{fill:#FFFFFF;}
	.st1{fill:#0D44FF;}
</style>
<g id="Layer_2">
	<g id="Layer_1-2">
		<circle class="st0" cx="16" cy="16" r="16"/>
	</g>
</g>
<g transform="translate(0.000000,640.000000) scale(0.100000,-0.100000)">
	<path class="st1" d="M151.8,6396.4c-3.3-1.9-7.4-4.2-9-5.1c-1.6-0.9-7.6-4.4-13.5-7.8c-44.1-25.6-51.3-29.7-52.1-29.7
		c-0.3,0-0.6-0.3-0.6-0.5c0-0.3-1-1-2.2-1.6l-2.2-1l-0.2-21c-0.1-11.5,0-21.1,0.3-21.2c0.3-0.2,2.6,0.9,5.1,2.4
		c6.9,4,16,9.2,24.3,14.1c11.8,6.9,20,11.6,22.8,13.2c1.4,0.8,7.2,4.1,12.9,7.4c11.8,6.9,17.4,10.1,19.3,11
		c1.1,0.6,3.6-0.7,16.4-8.1c8.2-4.9,16.3-9.6,17.9-10.4c1.6-0.9,5.5-3.1,8.7-5c4.9-2.9,22.1-12.8,28.3-16.4c1.1-0.6,4.8-2.7,8.2-4.8
		c3.5-2,6.5-3.5,6.7-3.3s0.4,9.6,0.3,21.1l-0.2,20.9l-5.5,3.1c-3.1,1.7-6.9,3.9-8.5,4.9c-1.6,1-4.3,2.6-6.1,3.6
		c-1.7,1-11.8,6.9-22.2,13c-10.4,6.1-22.3,13-26.3,15.4s-9.3,5.5-11.8,6.9c-2.4,1.5-4.4,2.7-4.5,2.6
		C157.9,6400,155.1,6398.4,151.8,6396.4z"/>
	<path class="st1" d="M284.3,6348.2c-1.9-1.7-3.4-3.5-3.4-3.9c0-0.4,1.6-1.7,3.6-2.8c1.9-1.2,4-2.4,4.6-2.8c9.5-5.6,11.8-7.1,12.2-8
		c0.3-0.6,0.4-6.4,0.4-13c0-6.6,0.1-12.3,0.4-12.7c0.3-0.5,1.9-0.3,5.7,0.8l5.3,1.5v13.9v13.9l-9.4,6.3c-11.9,8-14.6,9.7-15.4,9.8
		C288,6351.2,286.1,6349.8,284.3,6348.2z"/>
	<path class="st1" d="M60.2,6343.7c-10.5-6.3-19-11.1-21.8-12.7c-1.7-0.9-4.4-2.4-5.8-3.3c-1.4-0.8-3-1.7-3.3-1.9
		c-0.6-0.3-0.8-9.3-0.8-41.7v-41.3l4.4-2.4c2.4-1.3,8.7-5,13.9-8.2c5.3-3.2,10.9-6.5,12.5-7.4c2.7-1.5,28.2-16.4,43.6-25.4
		c10.7-6.3,10.9-6.4,13-5.4c1,0.4,1.9,1,1.9,1.3c0,0.3,0.3,0.5,0.6,0.5c0.3,0,4.2,2.1,8.5,4.6c4.3,2.5,9.8,5.7,12.1,6.9
		c2.3,1.3,5.5,3.1,7.2,4.1c3.1,1.8,5.1,3.6,3.9,3.6c-0.4,0-2.9,1.3-5.5,2.9c-2.6,1.6-5,2.9-5.3,2.9c-0.3,0-1,0.4-1.5,0.9
		c-0.6,0.5-2.4,1.7-4.2,2.6c-1.7,0.9-6,3.4-9.3,5.5c-3.3,2.1-6.7,4-7.4,4.4c-0.7,0.3-4,2.2-7.3,4.2c-3.3,2-6.2,3.6-6.3,3.6
		c-0.2,0-2.1,1.1-4.3,2.4c-5.9,3.6-6.4,3.9-7.5,4.4c-0.5,0.3-4.1,2.4-8,4.7c-3.9,2.3-8.8,5.2-10.9,6.3c-2.1,1.2-4.5,2.6-5.3,3.2
		l-1.4,1.1l-0.2,40.7c-0.1,26.5-0.3,40.8-0.8,40.9C64.4,6345.9,62.3,6345,60.2,6343.7z"/>
	<path class="st1" d="M249.3,6304.6l-0.2-40.9l-9-5.3c-4.9-3-9.4-5.5-10-5.8s-4-2.2-7.7-4.4c-3.7-2.2-8-4.7-9.6-5.6
		c-1.6-0.9-3.9-2.2-5.1-3c-4.7-2.6-27-15.5-34.7-20c-4.4-2.6-10-5.8-12.5-7.3c-2.4-1.4-5.7-3.2-7.1-4c-1.4-0.8-3.3-1.9-4.2-2.4
		c-0.9-0.4-5.5-3.1-10.3-5.9s-10.8-6.2-13.3-7.6c-2.6-1.4-4.7-2.8-4.7-3c0-0.4,4.8-3.4,12.3-7.7c0.9-0.5,4.9-2.8,8.9-5.1
		c3.9-2.3,8.8-5.1,10.7-6.2c2-1.2,3.9-2.1,4.4-2.1c0.4,0,4.8,2.4,9.7,5.2c4.9,2.9,12.8,7.4,17.4,10.1c4.6,2.7,9.9,5.7,11.8,6.8
		c1.9,1.1,3.9,2.3,4.5,2.6c0.6,0.4,4.1,2.4,7.8,4.4c3.7,2.1,8.8,5.1,11.3,6.6s4.7,2.8,4.9,2.8s2.3,1.2,4.6,2.6
		c2.4,1.4,9.1,5.4,15,8.8c5.9,3.3,11.9,6.8,13.3,7.6c1.4,0.8,5.9,3.4,10,5.7c4,2.4,7.8,4.5,8.4,4.8c4.8,2.9,9.6,5.6,10.5,6
		c1,0.4,1.1,3.4,1.1,41.6c0,23.8-0.3,41.1-0.6,41.1c-0.3,0-5.3,2.8-11.1,6.2c-5.8,3.4-11.6,6.7-12.8,7.5c-1.2,0.7-4.4,2.6-7.1,4.1
		c-2.7,1.5-5.2,2.8-5.6,2.8C249.6,6345.5,249.4,6334.7,249.3,6304.6z"/>
	<path class="st1" d="M28.4,6194.5v-39.8l2.4-1.5c2.4-1.5,21.4-12.5,26.2-15.2c1.4-0.8,4.2-2.4,6.1-3.5c1.9-1.2,4.8-2.8,6.4-3.7
		c4.6-2.6,15.3-8.8,20.2-11.8c2.5-1.5,6.1-3.6,8-4.6c1.9-1,7.1-4,11.6-6.6c4.4-2.6,9-5.3,10.3-6c9-5.1,13-7.3,15.9-9.2
		c1.9-1.2,3.5-2.2,3.6-2.2c0.1,0,3.8-2.1,8.2-4.6c12-6.9,10.8-6.4,13.1-5c1.1,0.6,4.2,2.4,6.9,4c12.5,7,26.8,15.7,26.9,16.2
		c0,0.4-1.7,1.5-3.7,2.6c-4.2,2.2-18.8,10.7-25.6,14.8c-2.6,1.5-4.9,2.8-5.3,2.8c-0.3,0-0.6,0.3-0.6,0.6c0,0.4-0.3,0.6-0.6,0.6
		c-0.3,0-2.1,0.9-4,2c-1.9,1.2-5,2.9-6.9,4s-4.3,2.4-5.3,3.1c-0.9,0.6-1.9,1.2-2.1,1.2s-1.2,0.5-2.1,1.2c-1,0.6-4,2.4-6.9,3.9
		s-5.8,3.2-6.7,3.8c-0.9,0.6-2.7,1.7-4,2.3c-1.3,0.7-2.4,1.5-2.4,1.7c0,0.3-0.3,0.5-0.6,0.5c-0.6,0-4.6,2.2-24.7,13.9
		c-8.1,4.7-14.9,8.5-15.3,8.5c-0.3,0-0.6,0.3-0.6,0.6c0,0.4-0.3,0.6-0.7,0.6c-0.5,0-7.5,3.8-10.1,5.5c-0.1,0.1-0.2,8.3-0.1,18.4
		v18.3l-1.7,1.3c-1,0.6-3.4,2.1-5.3,3.1c-1.9,1.1-5.5,3.1-8,4.7c-2.4,1.5-5.3,3.2-6.4,3.9c-6.6,3.7-11.5,6.6-13.5,7.7l-2.3,1.3
		V6194.5z"/>
	<path class="st1" d="M284.1,6232.9c-0.9-0.4-1.7-0.9-1.9-1.1c-0.4-0.4-5.7-3.9-6-3.9c-0.4,0-25.1-14.2-26-14.9
		c-0.6-0.5-0.8-5.1-0.8-19.2v-18.5l-1.4-0.8c-2.6-1.3-42.5-24.5-47.4-27.5c-2.6-1.6-5.3-3.1-5.8-3.4c-0.6-0.3-3.2-1.7-5.8-3.3
		c-2.6-1.5-8.9-5.3-14.1-8.4c-5.3-3.1-9.5-5.8-9.5-6s1.1-1,2.4-1.8c1.3-0.7,4.2-2.4,6.6-3.7c2.3-1.3,6-3.5,8.4-4.8
		c2.3-1.2,4.9-2.8,5.9-3.5c0.9-0.6,1.9-1.2,2.1-1.2c0.3,0,1.6-0.8,3.1-1.7c6.3-4,8.4-4.8,9.9-3.3c0.3,0.3,1.5,1.2,2.7,1.7
		c1.1,0.6,7.1,4.1,13.4,7.8c6.2,3.7,14.1,8.2,17.5,10.2c3.3,1.9,10.9,6.4,16.7,9.8c5.8,3.4,11.8,6.9,13.2,7.7
		c1.5,0.8,6.6,3.8,11.4,6.6l8.7,5v39.4c0,31.1-0.2,39.4-0.8,39.4C286.1,6233.7,285,6233.3,284.1,6232.9z"/>
	<path class="st1" d="M12.7,6174c-1-0.3-3.2-0.9-4.8-1.4l-2.9-0.9l-0.2-13.9l-0.1-13.9l12.1-8.1c6.7-4.4,12.4-8.1,12.6-8.1
		c0.8,0,8,6.7,7.8,7.3c-0.1,0.3-1.6,1.3-3.3,2.3c-5.4,3-15.4,8.9-16.5,9.8c-1,0.7-1.2,2.4-1.2,14.2c-0.1,9.3-0.3,13.3-0.8,13.2
		C14.9,6174.5,13.7,6174.2,12.7,6174z"/>
</g>
</svg>